<svg xmlns="http://www.w3.org/2000/svg" xmlns:xlink="http://www.w3.org/1999/xlink" width="1000" zoomAndPan="magnify" viewBox="0 0 750 374.999991" height="500" preserveAspectRatio="xMidYMid meet" version="1.0"><defs><clipPath id="id1"><path d="M 158.859375 42 L 481 42 L 481 317 L 158.859375 317 Z M 158.859375 42 " clip-rule="nonzero"/></clipPath><clipPath id="id2"><path d="M 256.5 42.597656 L 581.816406 42.597656 L 581.816406 317 L 256.5 317 Z M 256.5 42.597656 " clip-rule="nonzero"/></clipPath><clipPath id="id3"><path d="M 522.648438 302.53125 L 549.664062 302.53125 L 549.664062 343.707031 L 522.648438 343.707031 Z M 522.648438 302.53125 " clip-rule="nonzero"/></clipPath><clipPath id="id4"><path d="M 486.757812 302.53125 L 513.777344 302.53125 L 513.777344 343.707031 L 486.757812 343.707031 Z M 486.757812 302.53125 " clip-rule="nonzero"/></clipPath><clipPath id="id5"><path d="M 187 18.214844 L 215 18.214844 L 215 60 L 187 60 Z M 187 18.214844 " clip-rule="nonzero"/></clipPath><clipPath id="id6"><path d="M 223 18.214844 L 251 18.214844 L 251 60 L 223 60 Z M 223 18.214844 " clip-rule="nonzero"/></clipPath></defs><g clip-path="url(#id1)"><path fill="rgb(36.859131%, 9.01947%, 92.158508%)" d="M 238.78125 311.953125 C 197.378906 311.953125 163.703125 278.296875 163.703125 236.921875 L 163.703125 47.636719 L 180.761719 47.636719 L 180.761719 47.34375 C 180.714844 45.777344 180.8125 44.265625 181.105469 42.847656 L 158.914062 42.847656 L 158.914062 236.921875 C 158.914062 280.933594 194.742188 316.789062 238.78125 316.789062 L 480 316.789062 C 479.855469 315.128906 480 313.515625 480.34375 311.953125 L 238.78125 311.953125 " fill-opacity="1" fill-rule="nonzero"/></g><g clip-path="url(#id2)"><path fill="rgb(36.859131%, 9.01947%, 92.158508%)" d="M 501.949219 42.847656 L 256.671875 42.847656 C 256.769531 43.042969 256.769531 43.238281 256.816406 43.433594 C 257.011719 44.851562 257.109375 46.21875 257.011719 47.636719 L 501.949219 47.636719 C 543.296875 47.636719 576.976562 81.292969 576.976562 122.667969 L 576.976562 311.953125 L 555.859375 311.953125 C 556.054688 312.976562 556.203125 314.054688 556.253906 315.175781 C 556.253906 315.714844 556.300781 316.25 556.203125 316.789062 L 581.816406 316.789062 L 581.816406 122.667969 C 581.816406 78.65625 545.988281 42.847656 501.949219 42.847656 " fill-opacity="1" fill-rule="nonzero"/></g><path fill="rgb(36.859131%, 9.01947%, 92.158508%)" d="M 175.851562 236.9375 L 171.035156 236.9375 C 171.035156 274.261719 201.417969 304.625 238.769531 304.625 L 238.769531 299.8125 C 204.078125 299.8125 175.851562 271.605469 175.851562 236.9375 " fill-opacity="1" fill-rule="nonzero"/><path fill="rgb(36.859131%, 9.01947%, 92.158508%)" d="M 564.84375 122.667969 L 569.664062 122.667969 C 569.664062 85.339844 539.277344 54.976562 501.925781 54.976562 L 501.925781 59.789062 C 536.621094 59.789062 564.84375 87.996094 564.84375 122.667969 " fill-opacity="1" fill-rule="nonzero"/><g clip-path="url(#id3)"><path fill="rgb(36.859131%, 9.01947%, 92.158508%)" d="M 527.976562 305.144531 C 519.441406 311.464844 521.601562 325.226562 531.703125 328.589844 C 530.660156 331.71875 529.261719 334.894531 528.53125 338.105469 C 527.839844 341.132812 529.980469 344.328125 533.386719 343.605469 C 535.15625 343.230469 535.96875 341.875 536.824219 340.480469 C 540.679688 334.207031 545.542969 326.386719 548.089844 321.492188 C 549.023438 319.699219 549.394531 317.605469 549.320312 315.433594 C 548.949219 304.917969 536.414062 298.902344 527.976562 305.144531 " fill-opacity="1" fill-rule="nonzero"/></g><g clip-path="url(#id4)"><path fill="rgb(36.859131%, 9.01947%, 92.158508%)" d="M 492.164062 305.144531 C 483.628906 311.464844 485.789062 325.226562 495.890625 328.589844 C 494.847656 331.71875 493.449219 334.894531 492.714844 338.105469 C 492.027344 341.132812 494.164062 344.328125 497.574219 343.605469 C 499.339844 343.230469 500.15625 341.875 501.011719 340.480469 C 504.863281 334.207031 509.726562 326.386719 512.277344 321.492188 C 513.210938 319.699219 513.582031 317.605469 513.503906 315.433594 C 513.136719 304.917969 500.601562 298.902344 492.164062 305.144531 " fill-opacity="1" fill-rule="nonzero"/></g><g clip-path="url(#id5)"><path fill="rgb(36.859131%, 9.01947%, 92.158508%)" d="M 209.019531 57.382812 C 217.554688 51.066406 215.394531 37.304688 205.292969 33.9375 C 206.335938 30.8125 207.734375 27.632812 208.464844 24.421875 C 209.15625 21.398438 207.015625 18.203125 203.609375 18.925781 C 201.839844 19.300781 201.027344 20.65625 200.171875 22.050781 C 196.316406 28.324219 191.453125 36.140625 188.90625 41.039062 C 187.972656 42.832031 187.601562 44.925781 187.675781 47.097656 C 188.046875 57.613281 200.582031 63.628906 209.019531 57.382812 " fill-opacity="1" fill-rule="nonzero"/></g><g clip-path="url(#id6)"><path fill="rgb(36.859131%, 9.01947%, 92.158508%)" d="M 244.832031 57.382812 C 253.367188 51.066406 251.207031 37.304688 241.105469 33.9375 C 242.148438 30.8125 243.546875 27.632812 244.28125 24.421875 C 244.96875 21.398438 242.828125 18.203125 239.421875 18.925781 C 237.65625 19.300781 236.839844 20.65625 235.984375 22.050781 C 232.132812 28.324219 227.269531 36.140625 224.71875 41.039062 C 223.785156 42.832031 223.414062 44.925781 223.492188 47.097656 C 223.859375 57.613281 236.394531 63.628906 244.832031 57.382812 " fill-opacity="1" fill-rule="nonzero"/></g></svg>