<svg xmlns="http://www.w3.org/2000/svg" xmlns:xlink="http://www.w3.org/1999/xlink" width="500" zoomAndPan="magnify" viewBox="0 0 375 374.999991" height="500" preserveAspectRatio="xMidYMid meet" version="1.0"><defs><g/><clipPath id="id1"><path d="M 69.332031 29.496094 L 343.082031 29.496094 L 343.082031 303.246094 L 69.332031 303.246094 Z M 69.332031 29.496094 " clip-rule="nonzero"/></clipPath></defs><g clip-path="url(#id1)"><path fill="rgb(0%, 0%, 0%)" d="M 128.164062 29.496094 L 343.089844 29.496094 L 343.089844 303.253906 L 69.332031 303.253906 L 69.332031 261.898438 C 70.046875 262.808594 70.769531 263.714844 71.496094 264.617188 L 71.496094 301.089844 L 340.921875 301.089844 L 340.921875 31.65625 L 126.910156 31.65625 C 127.320312 30.960938 127.722656 30.269531 128.121094 29.566406 Z M 128.164062 29.496094 " fill-opacity="1" fill-rule="evenodd"/></g><g fill="rgb(0%, 0%, 0%)" fill-opacity="1"><g transform="translate(46.307826, 190.085173)"><g><path d="M 98.125 -18.398438 L 91.410156 -22.875 C 83.785156 -9.777344 74.671875 -3.894531 54.367188 -3.894531 C 31.328125 -3.894531 12.597656 -21.300781 12.597656 -59.585938 C 12.597656 -97.792969 36.878906 -115.609375 54.367188 -115.609375 C 75.582031 -115.609375 84.117188 -110.058594 94.890625 -92.488281 L 100.527344 -107.738281 C 91.246094 -105.25 86.6875 -118.84375 57.847656 -118.84375 C 25.195312 -118.84375 2.070312 -97.046875 2.070312 -59.339844 C 2.070312 -21.714844 25.527344 -0.0820312 54.367188 -0.0820312 C 73.59375 -0.0820312 88.511719 -5.71875 98.125 -18.398438 Z M 98.125 -18.398438 "/></g></g></g><g fill="rgb(0%, 0%, 0%)" fill-opacity="1"><g transform="translate(170.441811, 190.085173)"><g><path d="M 117.515625 -118.84375 L 105.335938 -118.84375 L 60.5 -13.757812 L 15.582031 -118.84375 L 2.070312 -118.84375 C 2.070312 -118.84375 6.960938 -116.523438 6.960938 -107.820312 L 6.960938 -11.601562 C 6.960938 -1.742188 3.5625 -0.0820312 3.5625 -0.0820312 L 12.347656 -0.0820312 C 12.347656 -0.0820312 8.867188 -1.742188 8.867188 -11.601562 C 8.867188 -11.601562 8.949219 -109.726562 8.949219 -110.554688 C 9.363281 -109.726562 57.183594 -0.0820312 57.183594 -0.0820312 C 57.183594 -0.0820312 103.511719 -109.808594 103.925781 -110.722656 L 103.925781 -11.601562 C 103.925781 -1.742188 100.527344 -0.0820312 100.527344 -0.0820312 L 117.515625 -0.0820312 C 117.515625 -0.0820312 114.035156 -1.742188 114.035156 -11.601562 L 114.035156 -107.902344 C 114.035156 -117.765625 117.515625 -118.84375 117.515625 -118.84375 Z M 117.515625 -118.84375 "/></g></g></g><g fill="rgb(0%, 0%, 0%)" fill-opacity="1"><g transform="translate(76.789144, 235.996357)"><g><path d="M 26.140625 -16.160156 C 25.066406 -14.332031 23.90625 -12.503906 22.65625 -10.707031 C 21.410156 -8.9375 19.988281 -7.222656 18.421875 -5.597656 C 16.855469 -3.945312 15.058594 -2.582031 13.027344 -1.507812 C 10.964844 -0.433594 8.90625 0 6.847656 -0.144531 C 5.832031 -0.230469 4.933594 -0.492188 4.089844 -0.929688 C 3.308594 -1.363281 2.640625 -1.972656 2.089844 -2.699219 C 1.074219 -4.148438 0.433594 -5.800781 0.230469 -7.6875 C 0 -9.542969 0 -11.429688 0.261719 -13.375 C 0.523438 -15.316406 0.929688 -17.289062 1.507812 -19.234375 C 2.117188 -21.179688 2.871094 -23.121094 3.800781 -25.035156 C 4.699219 -26.980469 5.832031 -28.835938 7.195312 -30.605469 C 8.558594 -32.433594 10.210938 -34 12.183594 -35.25 C 13.199219 -35.859375 14.246094 -36.265625 15.316406 -36.527344 C 16.390625 -36.785156 17.4375 -36.816406 18.421875 -36.613281 C 19.4375 -36.351562 20.222656 -35.859375 20.773438 -35.074219 C 21.292969 -34.320312 21.613281 -33.480469 21.757812 -32.523438 C 22.019531 -30.636719 21.847656 -28.664062 21.265625 -26.660156 C 20.742188 -24.660156 19.871094 -22.714844 18.625 -20.832031 C 18.015625 -19.871094 17.234375 -19.03125 16.277344 -18.25 C 15.78125 -17.871094 15.261719 -17.550781 14.707031 -17.320312 C 14.128906 -17.085938 13.546875 -16.972656 12.996094 -16.972656 C 12.851562 -16.972656 12.734375 -17.03125 12.679688 -17.117188 C 12.589844 -17.203125 12.589844 -17.320312 12.621094 -17.464844 C 12.648438 -17.609375 12.734375 -17.753906 12.882812 -17.84375 C 12.996094 -17.929688 13.113281 -17.988281 13.257812 -17.988281 C 14.101562 -18.015625 14.941406 -18.335938 15.753906 -18.972656 C 16.535156 -19.613281 17.203125 -20.367188 17.785156 -21.238281 C 18.914062 -22.949219 19.757812 -24.777344 20.25 -26.660156 C 20.800781 -28.578125 20.945312 -30.402344 20.714844 -32.117188 C 20.570312 -32.957031 20.277344 -33.710938 19.84375 -34.351562 C 19.378906 -34.988281 18.742188 -35.394531 17.929688 -35.597656 C 17.117188 -35.769531 16.246094 -35.742188 15.289062 -35.539062 C 14.359375 -35.335938 13.460938 -34.960938 12.5625 -34.40625 C 10.792969 -33.304688 9.285156 -31.882812 7.976562 -30.144531 C 6.703125 -28.460938 5.628906 -26.691406 4.730469 -24.832031 C 3.828125 -22.976562 3.105469 -21.089844 2.554688 -19.207031 C 1.972656 -17.320312 1.566406 -15.433594 1.335938 -13.546875 C 1.074219 -11.664062 1.074219 -9.835938 1.277344 -8.066406 C 1.480469 -6.296875 2.058594 -4.730469 2.988281 -3.421875 C 3.480469 -2.785156 4.0625 -2.261719 4.785156 -1.855469 C 5.511719 -1.480469 6.296875 -1.246094 7.195312 -1.160156 C 9.023438 -1.015625 10.878906 -1.421875 12.765625 -2.351562 C 14.59375 -3.335938 16.277344 -4.613281 17.8125 -6.152344 C 19.320312 -7.6875 20.683594 -9.339844 21.933594 -11.082031 C 23.179688 -12.824219 24.339844 -14.59375 25.441406 -16.421875 C 25.5 -16.535156 25.589844 -16.625 25.703125 -16.683594 C 25.820312 -16.710938 25.9375 -16.710938 26.023438 -16.683594 C 26.109375 -16.652344 26.167969 -16.566406 26.199219 -16.480469 C 26.226562 -16.390625 26.199219 -16.277344 26.140625 -16.160156 Z M 26.140625 -16.160156 "/></g></g></g><g fill="rgb(0%, 0%, 0%)" fill-opacity="1"><g transform="translate(101.679545, 235.996357)"><g><path d="M 2.292969 -16.535156 C 2.117188 -16.535156 1.945312 -16.480469 1.769531 -16.390625 C 1.363281 -16.128906 1.042969 -15.753906 0.785156 -15.203125 C 0.523438 -14.652344 0.378906 -14.128906 0.378906 -13.636719 C 0.378906 -13.492188 0.40625 -13.316406 0.492188 -13.140625 C 0.550781 -12.96875 0.667969 -12.882812 0.871094 -12.882812 C 1.191406 -12.882812 1.625 -13.199219 2.117188 -13.839844 C 2.609375 -14.449219 3.105469 -15.144531 3.570312 -15.871094 C 3.394531 -16.015625 3.191406 -16.1875 2.988281 -16.332031 C 2.785156 -16.480469 2.554688 -16.535156 2.292969 -16.535156 Z M 5.425781 -17.289062 C 5.453125 -17.175781 5.394531 -16.941406 5.28125 -16.566406 C 4.960938 -15.609375 4.84375 -14.796875 4.933594 -14.1875 C 5.019531 -13.546875 5.511719 -13.140625 6.441406 -12.996094 C 8.441406 -12.679688 11.167969 -13.695312 14.679688 -16.074219 C 14.824219 -16.160156 14.96875 -16.1875 15.113281 -16.1875 C 15.230469 -16.160156 15.316406 -16.101562 15.40625 -15.984375 C 15.464844 -15.871094 15.464844 -15.753906 15.433594 -15.609375 C 15.375 -15.464844 15.289062 -15.347656 15.144531 -15.261719 C 11.835938 -13.027344 9.082031 -11.894531 6.90625 -11.894531 C 6.585938 -11.894531 6.296875 -11.921875 6.003906 -11.980469 C 5.046875 -12.15625 4.4375 -12.503906 4.175781 -13.027344 C 3.917969 -13.519531 3.800781 -14.042969 3.859375 -14.621094 C 3.714844 -14.449219 3.597656 -14.273438 3.480469 -14.101562 C 3.015625 -13.433594 2.554688 -12.910156 2.058594 -12.476562 C 1.566406 -12.039062 1.101562 -11.835938 0.609375 -11.835938 C -0.175781 -11.835938 -0.609375 -12.359375 -0.667969 -13.375 C -0.695312 -14.042969 -0.492188 -14.765625 -0.117188 -15.550781 C 0.261719 -16.304688 0.8125 -16.886719 1.480469 -17.261719 C 1.796875 -17.464844 2.203125 -17.550781 2.699219 -17.550781 C 3.164062 -17.550781 3.65625 -17.320312 4.207031 -16.855469 C 4.292969 -17 4.378906 -17.117188 4.46875 -17.234375 C 4.554688 -17.378906 4.671875 -17.464844 4.816406 -17.523438 C 4.960938 -17.582031 5.078125 -17.582031 5.222656 -17.523438 C 5.339844 -17.492188 5.394531 -17.40625 5.425781 -17.289062 Z M 5.425781 -17.289062 "/></g></g></g><g fill="rgb(0%, 0%, 0%)" fill-opacity="1"><g transform="translate(116.27147, 235.996357)"><g><path d="M 3.015625 -11.894531 C 1.769531 -11.894531 0.929688 -12.214844 0.492188 -12.851562 C -0.117188 -13.664062 -0.203125 -15.261719 0.261719 -17.667969 C 0.726562 -20.046875 1.625 -23.644531 2.988281 -28.488281 C 3.421875 -30.085938 3.886719 -31.824219 4.410156 -33.742188 C 4.4375 -33.886719 4.527344 -34 4.671875 -34.089844 C 4.785156 -34.175781 4.902344 -34.234375 5.046875 -34.234375 C 5.191406 -34.234375 5.28125 -34.175781 5.367188 -34.089844 C 5.453125 -34 5.453125 -33.886719 5.425781 -33.742188 C 4.933594 -31.824219 4.4375 -30.054688 4.003906 -28.460938 C 2.757812 -24.023438 1.886719 -20.628906 1.390625 -18.25 C 0.898438 -15.839844 0.898438 -14.304688 1.421875 -13.578125 C 1.683594 -13.140625 2.320312 -12.9375 3.277344 -12.9375 C 4.175781 -12.9375 5.078125 -13.113281 5.976562 -13.492188 C 6.875 -13.867188 7.71875 -14.304688 8.5 -14.796875 C 9.285156 -15.289062 9.949219 -15.722656 10.558594 -16.128906 C 10.734375 -16.246094 10.878906 -16.363281 11.023438 -16.480469 C 11.167969 -16.566406 11.316406 -16.59375 11.460938 -16.59375 C 11.574219 -16.566406 11.664062 -16.507812 11.75 -16.390625 C 11.808594 -16.304688 11.808594 -16.1875 11.777344 -16.042969 C 11.722656 -15.898438 11.632812 -15.78125 11.488281 -15.695312 C 11.34375 -15.578125 11.167969 -15.464844 10.996094 -15.347656 C 10.386719 -14.910156 9.632812 -14.417969 8.789062 -13.898438 C 7.921875 -13.34375 6.992188 -12.882812 6.003906 -12.503906 C 5.019531 -12.097656 4.03125 -11.894531 3.015625 -11.894531 Z M 3.015625 -11.894531 "/></g></g></g><g fill="rgb(0%, 0%, 0%)" fill-opacity="1"><g transform="translate(127.092122, 235.996357)"><g><path d="M 2.667969 -11.953125 C 2.496094 -11.953125 2.320312 -11.953125 2.175781 -11.980469 C 1.191406 -12.039062 0.492188 -12.417969 0.0859375 -13.113281 C -0.261719 -13.78125 -0.378906 -14.535156 -0.230469 -15.316406 C -0.117188 -16.101562 0.0273438 -16.683594 0.230469 -17.117188 C 0.289062 -17.261719 0.378906 -17.378906 0.523438 -17.464844 C 0.636719 -17.550781 0.753906 -17.582031 0.898438 -17.550781 C 1.042969 -17.523438 1.160156 -17.464844 1.21875 -17.378906 C 1.246094 -17.261719 1.246094 -17.144531 1.21875 -17 C 0.726562 -15.609375 0.667969 -14.535156 1.042969 -13.78125 C 1.304688 -13.289062 1.796875 -13.027344 2.523438 -12.996094 C 4.613281 -12.765625 7.339844 -13.898438 10.734375 -16.421875 C 10.878906 -16.507812 10.996094 -16.566406 11.140625 -16.566406 C 11.285156 -16.566406 11.371094 -16.507812 11.460938 -16.390625 C 11.519531 -16.277344 11.519531 -16.160156 11.488281 -16.015625 C 11.460938 -15.871094 11.371094 -15.753906 11.226562 -15.667969 C 7.921875 -13.199219 5.078125 -11.953125 2.667969 -11.953125 Z M 1.914062 -18.972656 C 1.855469 -18.769531 1.769531 -18.625 1.625 -18.507812 C 1.480469 -18.363281 1.304688 -18.304688 1.132812 -18.304688 C 0.988281 -18.304688 0.871094 -18.363281 0.785156 -18.507812 C 0.695312 -18.625 0.695312 -18.769531 0.726562 -18.972656 C 0.785156 -19.148438 0.898438 -19.292969 1.042969 -19.4375 C 1.191406 -19.554688 1.335938 -19.613281 1.507812 -19.613281 C 1.652344 -19.613281 1.769531 -19.554688 1.855469 -19.4375 C 1.945312 -19.292969 1.945312 -19.148438 1.914062 -18.972656 Z M 1.914062 -18.972656 "/></g></g></g><g fill="rgb(0%, 0%, 0%)" fill-opacity="1"><g transform="translate(137.709705, 235.996357)"><g><path d="M 3.773438 -11.75 C 3.625 -11.664062 3.480469 -11.574219 3.335938 -11.488281 C 2.089844 -10.734375 1.191406 -10.097656 0.582031 -9.601562 C -0.0273438 -9.082031 -0.40625 -8.675781 -0.582031 -8.414062 C -0.785156 -8.125 -0.871094 -7.949219 -0.839844 -7.863281 C -0.871094 -7.804688 -0.871094 -7.746094 -0.839844 -7.6875 C -0.8125 -7.628906 -0.753906 -7.570312 -0.636719 -7.515625 C -0.289062 -7.339844 0.289062 -7.339844 1.101562 -7.542969 C 1.914062 -7.746094 2.84375 -8.152344 3.917969 -8.761719 C 4.527344 -9.140625 4.875 -9.515625 4.960938 -9.863281 C 5.019531 -10.472656 4.613281 -11.082031 3.773438 -11.75 Z M -0.261719 -6.355469 C -0.695312 -6.355469 -1.042969 -6.410156 -1.304688 -6.554688 C -1.796875 -6.816406 -1.972656 -7.222656 -1.886719 -7.773438 C -1.652344 -8.992188 -0.0273438 -10.53125 2.988281 -12.359375 C 2.667969 -12.589844 2.320312 -12.851562 1.886719 -13.140625 C 1.449219 -13.402344 1.042969 -13.722656 0.609375 -14.042969 C 0.0585938 -14.503906 -0.175781 -14.96875 -0.117188 -15.433594 C -0.0859375 -15.871094 0.0585938 -16.246094 0.289062 -16.507812 C 1.015625 -17.464844 2.148438 -18.277344 3.65625 -18.886719 C 5.164062 -19.496094 6.410156 -19.699219 7.425781 -19.554688 C 8.269531 -19.351562 8.585938 -18.859375 8.382812 -18.015625 C 8.355469 -17.871094 8.269531 -17.753906 8.152344 -17.667969 C 8.007812 -17.582031 7.863281 -17.523438 7.71875 -17.523438 C 7.570312 -17.523438 7.484375 -17.582031 7.425781 -17.667969 C 7.339844 -17.753906 7.3125 -17.871094 7.339844 -18.015625 C 7.367188 -18.132812 7.367188 -18.25 7.339844 -18.335938 C 7.3125 -18.421875 7.164062 -18.507812 6.960938 -18.566406 C 6.179688 -18.65625 5.136719 -18.453125 3.886719 -17.957031 C 2.609375 -17.464844 1.683594 -16.855469 1.132812 -16.128906 C 1.015625 -15.984375 0.957031 -15.8125 0.957031 -15.609375 C 0.929688 -15.40625 1.074219 -15.171875 1.390625 -14.910156 C 1.796875 -14.59375 2.261719 -14.273438 2.757812 -13.925781 C 3.25 -13.605469 3.683594 -13.289062 4.121094 -12.96875 C 6.152344 -13.984375 8.441406 -14.796875 10.964844 -15.433594 C 13.492188 -16.074219 15.722656 -16.390625 17.726562 -16.390625 C 17.871094 -16.390625 17.988281 -16.332031 18.074219 -16.246094 C 18.132812 -16.160156 18.132812 -16.015625 18.101562 -15.871094 C 18.074219 -15.722656 17.988281 -15.609375 17.871094 -15.519531 C 17.726562 -15.433594 17.582031 -15.375 17.4375 -15.375 C 15.609375 -15.375 13.546875 -15.085938 11.257812 -14.535156 C 8.9375 -13.953125 6.816406 -13.230469 4.902344 -12.328125 C 5.773438 -11.605469 6.152344 -10.792969 6.003906 -9.921875 C 5.859375 -9.195312 5.28125 -8.558594 4.292969 -7.949219 C 2.554688 -6.90625 1.042969 -6.382812 -0.261719 -6.355469 Z M -0.261719 -6.355469 "/></g></g></g><g fill="rgb(0%, 0%, 0%)" fill-opacity="1"><g transform="translate(154.883502, 235.996357)"><g><path d="M 5.425781 -33.742188 C 4.988281 -32.117188 4.582031 -30.605469 4.207031 -29.214844 L 18.683594 -29.214844 C 18.828125 -29.214844 18.914062 -29.15625 19.003906 -29.070312 C 19.089844 -28.984375 19.089844 -28.835938 19.0625 -28.691406 C 19.03125 -28.546875 18.945312 -28.429688 18.828125 -28.34375 C 18.683594 -28.226562 18.539062 -28.171875 18.394531 -28.171875 L 3.917969 -28.171875 C 2.726562 -23.875 1.886719 -20.570312 1.390625 -18.25 C 0.898438 -15.839844 0.898438 -14.304688 1.421875 -13.578125 C 1.710938 -13.140625 2.320312 -12.9375 3.277344 -12.9375 C 4.148438 -12.9375 5.019531 -13.113281 5.890625 -13.460938 C 6.730469 -13.808594 7.542969 -14.214844 8.296875 -14.707031 C 9.050781 -15.171875 9.71875 -15.609375 10.328125 -16.042969 L 10.355469 -16.042969 C 10.558594 -16.1875 10.734375 -16.332031 10.910156 -16.449219 C 11.054688 -16.535156 11.167969 -16.59375 11.316406 -16.566406 C 11.460938 -16.535156 11.546875 -16.480469 11.605469 -16.390625 C 11.664062 -16.277344 11.664062 -16.160156 11.632812 -16.015625 C 11.574219 -15.871094 11.488281 -15.753906 11.34375 -15.667969 C 11.199219 -15.550781 11.023438 -15.433594 10.851562 -15.289062 C 10.820312 -15.289062 10.820312 -15.289062 10.792969 -15.261719 C 10.183594 -14.824219 9.488281 -14.359375 8.644531 -13.839844 C 7.804688 -13.316406 6.90625 -12.851562 5.949219 -12.476562 C 4.988281 -12.097656 4.003906 -11.894531 3.015625 -11.894531 C 1.769531 -11.894531 0.929688 -12.214844 0.492188 -12.851562 C -0.117188 -13.664062 -0.203125 -15.261719 0.261719 -17.667969 C 0.726562 -19.988281 1.59375 -23.5 2.902344 -28.171875 L -4.699219 -28.171875 C -4.84375 -28.171875 -4.933594 -28.226562 -4.988281 -28.34375 C -5.078125 -28.429688 -5.105469 -28.546875 -5.078125 -28.691406 C -5.019531 -28.835938 -4.933594 -28.984375 -4.816406 -29.070312 C -4.699219 -29.15625 -4.554688 -29.214844 -4.410156 -29.214844 L 3.191406 -29.214844 C 3.570312 -30.605469 3.972656 -32.117188 4.410156 -33.742188 C 4.4375 -33.886719 4.527344 -34 4.671875 -34.089844 C 4.785156 -34.175781 4.902344 -34.234375 5.046875 -34.234375 C 5.191406 -34.234375 5.308594 -34.175781 5.394531 -34.089844 C 5.453125 -34 5.453125 -33.886719 5.425781 -33.742188 Z M 5.425781 -33.742188 "/></g></g></g><g fill="rgb(0%, 0%, 0%)" fill-opacity="1"><g transform="translate(165.501085, 235.996357)"><g><path d="M 2.292969 -16.535156 C 2.117188 -16.535156 1.945312 -16.480469 1.769531 -16.390625 C 1.363281 -16.128906 1.042969 -15.753906 0.785156 -15.203125 C 0.523438 -14.652344 0.378906 -14.128906 0.378906 -13.636719 C 0.378906 -13.492188 0.40625 -13.316406 0.492188 -13.140625 C 0.550781 -12.96875 0.667969 -12.882812 0.871094 -12.882812 C 1.191406 -12.882812 1.625 -13.199219 2.117188 -13.839844 C 2.609375 -14.449219 3.105469 -15.144531 3.570312 -15.871094 C 3.394531 -16.015625 3.191406 -16.1875 2.988281 -16.332031 C 2.785156 -16.480469 2.554688 -16.535156 2.292969 -16.535156 Z M 5.425781 -17.289062 C 5.453125 -17.175781 5.394531 -16.941406 5.28125 -16.566406 C 4.960938 -15.609375 4.84375 -14.796875 4.933594 -14.1875 C 5.019531 -13.546875 5.511719 -13.140625 6.441406 -12.996094 C 8.441406 -12.679688 11.167969 -13.695312 14.679688 -16.074219 C 14.824219 -16.160156 14.96875 -16.1875 15.113281 -16.1875 C 15.230469 -16.160156 15.316406 -16.101562 15.40625 -15.984375 C 15.464844 -15.871094 15.464844 -15.753906 15.433594 -15.609375 C 15.375 -15.464844 15.289062 -15.347656 15.144531 -15.261719 C 11.835938 -13.027344 9.082031 -11.894531 6.90625 -11.894531 C 6.585938 -11.894531 6.296875 -11.921875 6.003906 -11.980469 C 5.046875 -12.15625 4.4375 -12.503906 4.175781 -13.027344 C 3.917969 -13.519531 3.800781 -14.042969 3.859375 -14.621094 C 3.714844 -14.449219 3.597656 -14.273438 3.480469 -14.101562 C 3.015625 -13.433594 2.554688 -12.910156 2.058594 -12.476562 C 1.566406 -12.039062 1.101562 -11.835938 0.609375 -11.835938 C -0.175781 -11.835938 -0.609375 -12.359375 -0.667969 -13.375 C -0.695312 -14.042969 -0.492188 -14.765625 -0.117188 -15.550781 C 0.261719 -16.304688 0.8125 -16.886719 1.480469 -17.261719 C 1.796875 -17.464844 2.203125 -17.550781 2.699219 -17.550781 C 3.164062 -17.550781 3.65625 -17.320312 4.207031 -16.855469 C 4.292969 -17 4.378906 -17.117188 4.46875 -17.234375 C 4.554688 -17.378906 4.671875 -17.464844 4.816406 -17.523438 C 4.960938 -17.582031 5.078125 -17.582031 5.222656 -17.523438 C 5.339844 -17.492188 5.394531 -17.40625 5.425781 -17.289062 Z M 5.425781 -17.289062 "/></g></g></g><g fill="rgb(0%, 0%, 0%)" fill-opacity="1"><g transform="translate(180.086186, 235.996357)"><g/></g></g><g fill="rgb(0%, 0%, 0%)" fill-opacity="1"><g transform="translate(76.789144, 283.112963)"><g><path d="M 79.839844 -16.277344 C 79.753906 -16.363281 79.636719 -16.390625 79.492188 -16.390625 C 79.347656 -16.363281 79.230469 -16.304688 79.085938 -16.1875 C 73.195312 -10.53125 68.84375 -7.6875 65.972656 -7.6875 C 64.957031 -7.6875 64.171875 -8.007812 63.621094 -8.617188 C 63.042969 -9.226562 62.636719 -10.007812 62.375 -11.023438 C 62.113281 -12.039062 61.941406 -13.140625 61.851562 -14.359375 C 61.765625 -15.550781 61.738281 -16.769531 61.738281 -18.015625 C 61.707031 -19.46875 61.648438 -20.832031 61.5625 -22.078125 C 61.445312 -23.324219 61.1875 -24.371094 60.78125 -25.152344 C 60.34375 -25.9375 59.675781 -26.34375 58.71875 -26.34375 C 57.644531 -26.34375 56.601562 -25.996094 55.585938 -25.269531 C 54.542969 -24.542969 53.527344 -23.617188 52.570312 -22.453125 C 51.582031 -21.265625 50.625 -19.988281 49.695312 -18.566406 C 48.738281 -17.144531 47.839844 -15.722656 46.96875 -14.304688 C 46.300781 -13.230469 45.636719 -12.15625 44.96875 -11.140625 C 44.300781 -10.097656 43.664062 -9.226562 43.109375 -8.558594 C 42.53125 -7.863281 42.066406 -7.515625 41.691406 -7.515625 C 41.339844 -7.515625 41.195312 -8.035156 41.253906 -9.050781 C 41.285156 -10.066406 41.429688 -11.285156 41.660156 -12.707031 C 41.894531 -14.128906 42.125 -15.519531 42.386719 -16.886719 C 42.792969 -19.003906 43.167969 -21.089844 43.488281 -23.210938 C 43.808594 -25.296875 43.953125 -27.214844 43.980469 -28.953125 C 43.980469 -30.695312 43.71875 -32.085938 43.226562 -33.160156 C 42.734375 -34.203125 41.835938 -34.726562 40.527344 -34.726562 C 38.816406 -34.726562 37.046875 -33.796875 35.164062 -31.972656 C 33.277344 -30.144531 31.363281 -27.675781 29.476562 -24.632812 C 27.5625 -21.554688 25.703125 -18.101562 23.933594 -14.304688 C 22.136719 -10.503906 20.453125 -6.585938 18.914062 -2.554688 C 19.089844 -3.453125 19.378906 -4.582031 19.757812 -5.890625 C 20.132812 -7.195312 20.539062 -8.558594 20.945312 -9.949219 C 21.960938 -13.140625 22.890625 -16.480469 23.789062 -19.960938 C 24.6875 -23.414062 25.152344 -26.574219 25.238281 -29.417969 C 25.328125 -32.230469 24.632812 -34.261719 23.210938 -35.511719 C 21.527344 -36.84375 18.828125 -36.730469 15.144531 -35.132812 C 10.851562 -33.160156 7.3125 -30.550781 4.527344 -27.300781 C 1.742188 -24.050781 0.261719 -21.121094 0.0585938 -18.539062 C 0.0273438 -17.378906 0.320312 -16.480469 0.988281 -15.871094 C 1.625 -15.230469 2.554688 -14.910156 3.773438 -14.910156 C 3.917969 -14.910156 4.0625 -14.96875 4.207031 -15.085938 C 4.324219 -15.171875 4.410156 -15.289062 4.4375 -15.433594 C 4.46875 -15.578125 4.46875 -15.722656 4.378906 -15.8125 C 4.292969 -15.898438 4.207031 -15.957031 4.0625 -15.957031 C 2.058594 -15.957031 1.101562 -16.886719 1.132812 -18.769531 C 1.191406 -20.132812 1.796875 -21.789062 2.988281 -23.730469 C 4.148438 -25.644531 5.773438 -27.5625 7.890625 -29.445312 C 9.980469 -31.332031 12.476562 -32.929688 15.347656 -34.203125 C 18.625 -35.625 21.003906 -35.769531 22.425781 -34.667969 C 23.703125 -33.507812 24.28125 -31.535156 24.136719 -28.75 C 23.992188 -25.964844 23.5 -22.890625 22.628906 -19.496094 C 21.757812 -16.101562 20.859375 -12.910156 19.929688 -9.980469 C 19.0625 -7.164062 18.453125 -4.960938 18.074219 -3.394531 C 17.695312 -1.828125 17.667969 -0.839844 17.957031 -0.40625 C 18.101562 -0.203125 18.335938 -0.0859375 18.597656 -0.117188 C 18.859375 -0.117188 19.089844 -0.320312 19.265625 -0.753906 C 23.0625 -10.878906 26.863281 -18.914062 30.636719 -24.832031 C 34.40625 -30.753906 37.628906 -33.710938 40.269531 -33.710938 C 41.109375 -33.710938 41.71875 -33.363281 42.125 -32.667969 C 42.503906 -31.941406 42.734375 -31.011719 42.820312 -29.824219 C 42.910156 -28.632812 42.878906 -27.300781 42.734375 -25.820312 C 42.589844 -24.339844 42.414062 -22.832031 42.152344 -21.292969 C 41.894531 -19.757812 41.601562 -18.25 41.339844 -16.796875 C 40.90625 -14.535156 40.585938 -12.648438 40.382812 -11.113281 C 40.179688 -9.574219 40.125 -8.441406 40.269531 -7.660156 C 40.414062 -6.875 40.789062 -6.5 41.398438 -6.5 C 42.007812 -6.5 42.648438 -6.816406 43.3125 -7.457031 C 43.953125 -8.09375 44.648438 -8.964844 45.402344 -10.097656 C 46.128906 -11.226562 46.941406 -12.503906 47.839844 -13.953125 C 48.625 -15.230469 49.464844 -16.535156 50.335938 -17.871094 C 51.207031 -19.175781 52.105469 -20.394531 53.003906 -21.527344 C 53.902344 -22.65625 54.832031 -23.558594 55.761719 -24.253906 C 56.660156 -24.949219 57.558594 -25.296875 58.457031 -25.296875 C 59.125 -25.296875 59.617188 -24.949219 59.9375 -24.226562 C 60.257812 -23.5 60.429688 -22.570312 60.519531 -21.441406 C 60.605469 -20.277344 60.632812 -19.03125 60.664062 -17.726562 C 60.664062 -16.421875 60.722656 -15.113281 60.808594 -13.808594 C 60.894531 -12.503906 61.070312 -11.316406 61.386719 -10.242188 C 61.707031 -9.167969 62.199219 -8.296875 62.867188 -7.628906 C 63.535156 -6.960938 64.492188 -6.644531 65.710938 -6.644531 C 68.933594 -6.644531 73.632812 -9.601562 79.753906 -15.550781 C 79.867188 -15.667969 79.925781 -15.78125 79.957031 -15.925781 C 79.984375 -16.074219 79.925781 -16.1875 79.839844 -16.277344 Z M 79.839844 -16.277344 "/></g></g></g><g fill="rgb(0%, 0%, 0%)" fill-opacity="1"><g transform="translate(155.521717, 283.112963)"><g><path d="M 3.105469 -11.953125 C 1.480469 -11.953125 0.433594 -12.328125 -0.0585938 -13.113281 C -0.433594 -13.722656 -0.464844 -14.503906 -0.117188 -15.492188 C 0.320312 -16.625 1.015625 -17.378906 2.03125 -17.8125 C 2.8125 -18.101562 3.421875 -18.074219 3.859375 -17.695312 C 4.234375 -17.347656 4.292969 -16.855469 4.0625 -16.21875 C 4.003906 -16.074219 3.917969 -15.957031 3.800781 -15.871094 C 3.65625 -15.78125 3.539062 -15.753906 3.394531 -15.753906 C 3.25 -15.78125 3.132812 -15.839844 3.074219 -15.957031 C 3.015625 -16.042969 3.015625 -16.1875 3.074219 -16.332031 C 3.164062 -16.59375 3.164062 -16.769531 3.046875 -16.855469 C 2.84375 -17 2.582031 -17.03125 2.203125 -16.886719 C 1.59375 -16.625 1.160156 -16.128906 0.871094 -15.375 C 0.636719 -14.707031 0.636719 -14.15625 0.871094 -13.78125 C 1.246094 -13.230469 2.089844 -12.96875 3.394531 -12.96875 C 6.382812 -12.96875 9.542969 -14.128906 12.910156 -16.449219 C 13.054688 -16.535156 13.171875 -16.59375 13.316406 -16.566406 C 13.460938 -16.535156 13.546875 -16.480469 13.636719 -16.390625 C 13.695312 -16.277344 13.695312 -16.160156 13.664062 -16.015625 C 13.605469 -15.871094 13.519531 -15.753906 13.375 -15.667969 C 9.71875 -13.199219 6.296875 -11.953125 3.105469 -11.953125 Z M 3.105469 -11.953125 "/></g></g></g><g fill="rgb(0%, 0%, 0%)" fill-opacity="1"><g transform="translate(168.344045, 283.112963)"><g><path d="M 23.382812 -35.597656 C 26.605469 -35.683594 28.171875 -34.351562 28.054688 -31.652344 C 27.878906 -29.707031 26.75 -27.707031 24.660156 -25.675781 C 22.570312 -23.617188 19.613281 -22.019531 15.78125 -20.859375 C 12.039062 -19.816406 8.9375 -19.582031 6.46875 -20.191406 C 7.542969 -22.832031 8.90625 -25.296875 10.617188 -27.589844 C 12.300781 -29.851562 14.214844 -31.710938 16.390625 -33.160156 C 18.539062 -34.609375 20.859375 -35.421875 23.382812 -35.597656 Z M 23.992188 -14.390625 C 23.558594 -14.476562 23.210938 -14.332031 22.949219 -13.984375 C 22.6875 -13.636719 22.453125 -13.230469 22.25 -12.765625 C 21.875 -11.867188 21.351562 -10.792969 20.683594 -9.542969 C 20.019531 -8.296875 19.234375 -7.050781 18.304688 -5.800781 C 17.347656 -4.554688 16.277344 -3.511719 15.058594 -2.667969 C 13.808594 -1.828125 12.445312 -1.390625 10.910156 -1.390625 C 9.195312 -1.390625 7.832031 -1.828125 6.847656 -2.667969 C 5.859375 -3.511719 5.164062 -4.613281 4.757812 -6.003906 C 4.351562 -7.367188 4.175781 -8.878906 4.234375 -10.53125 C 4.292969 -12.183594 4.527344 -13.808594 4.933594 -15.464844 C 5.222656 -16.710938 5.597656 -17.929688 6.0625 -19.175781 C 8.703125 -18.566406 11.953125 -18.800781 15.839844 -19.871094 C 19.960938 -21.121094 23.152344 -22.890625 25.414062 -25.183594 C 27.675781 -27.445312 28.925781 -29.648438 29.128906 -31.824219 C 29.242188 -33.421875 28.808594 -34.640625 27.820312 -35.480469 C 26.835938 -36.324219 25.414062 -36.699219 23.585938 -36.613281 C 20.917969 -36.410156 18.421875 -35.566406 16.128906 -34.058594 C 13.808594 -32.523438 11.75 -30.578125 9.949219 -28.199219 C 8.152344 -25.820312 6.671875 -23.238281 5.542969 -20.480469 C 4.292969 -20.945312 3.335938 -21.644531 2.609375 -22.570312 C 0.667969 -25.328125 1.042969 -29.15625 3.683594 -34.089844 C 3.742188 -34.234375 3.773438 -34.351562 3.742188 -34.464844 C 3.714844 -34.582031 3.625 -34.667969 3.480469 -34.726562 C 3.367188 -34.757812 3.25 -34.726562 3.105469 -34.667969 C 2.960938 -34.609375 2.84375 -34.496094 2.757812 -34.351562 C -0.0859375 -29.039062 -0.433594 -24.890625 1.683594 -21.847656 C 2.523438 -20.742188 3.65625 -19.929688 5.136719 -19.4375 C 4.640625 -18.101562 4.207031 -16.769531 3.886719 -15.433594 C 3.453125 -13.546875 3.21875 -11.691406 3.191406 -9.921875 C 3.164062 -8.125 3.421875 -6.5 3.917969 -5.078125 C 4.410156 -3.65625 5.222656 -2.496094 6.324219 -1.652344 C 7.398438 -0.785156 8.847656 -0.347656 10.648438 -0.347656 C 12.242188 -0.347656 13.664062 -0.753906 14.96875 -1.566406 C 16.277344 -2.351562 17.40625 -3.367188 18.421875 -4.554688 C 19.4375 -5.746094 20.277344 -6.992188 21.003906 -8.238281 C 21.730469 -9.488281 22.308594 -10.617188 22.773438 -11.605469 C 22.453125 -10.183594 22.050781 -8.585938 21.554688 -6.816406 C 21.0625 -5.046875 20.683594 -3.597656 20.367188 -2.496094 C 20.132812 -1.683594 19.960938 -1.042969 19.84375 -0.609375 C 19.816406 -0.464844 19.816406 -0.347656 19.902344 -0.261719 C 19.988281 -0.144531 20.074219 -0.0859375 20.222656 -0.0859375 C 20.367188 -0.0859375 20.480469 -0.144531 20.628906 -0.261719 C 20.742188 -0.347656 20.832031 -0.464844 20.859375 -0.609375 C 20.976562 -1.042969 21.148438 -1.652344 21.382812 -2.496094 C 21.46875 -2.8125 21.554688 -3.132812 21.644531 -3.421875 C 22.746094 -7.28125 23.5 -10.039062 23.90625 -11.75 C 24.3125 -13.460938 24.339844 -14.332031 23.992188 -14.390625 Z M 23.992188 -14.390625 "/></g></g></g><g fill="rgb(0%, 0%, 0%)" fill-opacity="1"><g transform="translate(196.599581, 283.112963)"><g><path d="M 2.292969 -16.535156 C 2.117188 -16.535156 1.945312 -16.480469 1.769531 -16.390625 C 1.363281 -16.128906 1.042969 -15.753906 0.785156 -15.203125 C 0.523438 -14.652344 0.378906 -14.128906 0.378906 -13.636719 C 0.378906 -13.492188 0.40625 -13.316406 0.492188 -13.140625 C 0.550781 -12.96875 0.667969 -12.882812 0.871094 -12.882812 C 1.191406 -12.882812 1.625 -13.199219 2.117188 -13.839844 C 2.609375 -14.449219 3.105469 -15.144531 3.570312 -15.871094 C 3.394531 -16.015625 3.191406 -16.1875 2.988281 -16.332031 C 2.785156 -16.480469 2.554688 -16.535156 2.292969 -16.535156 Z M 5.425781 -17.289062 C 5.453125 -17.175781 5.394531 -16.941406 5.28125 -16.566406 C 4.960938 -15.609375 4.84375 -14.796875 4.933594 -14.1875 C 5.019531 -13.546875 5.511719 -13.140625 6.441406 -12.996094 C 8.441406 -12.679688 11.167969 -13.695312 14.679688 -16.074219 C 14.824219 -16.160156 14.96875 -16.1875 15.113281 -16.1875 C 15.230469 -16.160156 15.316406 -16.101562 15.40625 -15.984375 C 15.464844 -15.871094 15.464844 -15.753906 15.433594 -15.609375 C 15.375 -15.464844 15.289062 -15.347656 15.144531 -15.261719 C 11.835938 -13.027344 9.082031 -11.894531 6.90625 -11.894531 C 6.585938 -11.894531 6.296875 -11.921875 6.003906 -11.980469 C 5.046875 -12.15625 4.4375 -12.503906 4.175781 -13.027344 C 3.917969 -13.519531 3.800781 -14.042969 3.859375 -14.621094 C 3.714844 -14.449219 3.597656 -14.273438 3.480469 -14.101562 C 3.015625 -13.433594 2.554688 -12.910156 2.058594 -12.476562 C 1.566406 -12.039062 1.101562 -11.835938 0.609375 -11.835938 C -0.175781 -11.835938 -0.609375 -12.359375 -0.667969 -13.375 C -0.695312 -14.042969 -0.492188 -14.765625 -0.117188 -15.550781 C 0.261719 -16.304688 0.8125 -16.886719 1.480469 -17.261719 C 1.796875 -17.464844 2.203125 -17.550781 2.699219 -17.550781 C 3.164062 -17.550781 3.65625 -17.320312 4.207031 -16.855469 C 4.292969 -17 4.378906 -17.117188 4.46875 -17.234375 C 4.554688 -17.378906 4.671875 -17.464844 4.816406 -17.523438 C 4.960938 -17.582031 5.078125 -17.582031 5.222656 -17.523438 C 5.339844 -17.492188 5.394531 -17.40625 5.425781 -17.289062 Z M 5.425781 -17.289062 "/></g></g></g><g fill="rgb(0%, 0%, 0%)" fill-opacity="1"><g transform="translate(211.191506, 283.112963)"><g><path d="M 8.355469 -17.175781 C 8.53125 -17.378906 8.703125 -17.523438 8.820312 -17.550781 C 8.964844 -17.582031 9.082031 -17.582031 9.195312 -17.492188 C 9.285156 -17.4375 9.3125 -17.347656 9.339844 -17.261719 C 9.339844 -17.203125 9.339844 -17.117188 9.339844 -17.058594 L 9.285156 -16.855469 C 9.109375 -16.304688 8.992188 -15.722656 8.9375 -15.171875 C 8.878906 -14.621094 8.992188 -14.128906 9.3125 -13.722656 C 9.632812 -13.316406 10.269531 -13.085938 11.226562 -12.996094 C 12.476562 -12.96875 13.78125 -13.316406 15.203125 -14.070312 C 16.625 -14.796875 17.898438 -15.609375 19.03125 -16.449219 C 19.175781 -16.535156 19.292969 -16.566406 19.4375 -16.566406 C 19.582031 -16.535156 19.667969 -16.480469 19.757812 -16.390625 C 19.816406 -16.277344 19.816406 -16.160156 19.785156 -16.015625 C 19.726562 -15.871094 19.640625 -15.753906 19.496094 -15.667969 C 18.25 -14.765625 16.914062 -13.925781 15.492188 -13.171875 C 14.042969 -12.386719 12.621094 -11.980469 11.257812 -11.953125 C 11.113281 -11.953125 10.996094 -11.953125 10.878906 -11.980469 C 9.601562 -12.097656 8.761719 -12.445312 8.382812 -13.027344 C 7.976562 -13.578125 7.804688 -14.214844 7.890625 -14.941406 C 7.890625 -15.113281 7.921875 -15.261719 7.921875 -15.40625 C 7.3125 -14.765625 6.703125 -14.246094 6.121094 -13.839844 C 5.136719 -13.113281 4.265625 -12.621094 3.480469 -12.359375 C 2.699219 -12.097656 2.089844 -11.953125 1.59375 -11.953125 C 1.449219 -11.953125 1.304688 -11.953125 1.160156 -11.980469 C -0.433594 -12.242188 -0.667969 -13.953125 0.40625 -17.085938 C 0.464844 -17.234375 0.550781 -17.378906 0.695312 -17.464844 C 0.8125 -17.550781 0.929688 -17.582031 1.074219 -17.550781 C 1.21875 -17.550781 1.335938 -17.492188 1.390625 -17.40625 C 1.449219 -17.289062 1.449219 -17.144531 1.421875 -17 C 1.101562 -16.074219 0.898438 -15.347656 0.839844 -14.824219 C 0.785156 -14.273438 0.8125 -13.898438 0.898438 -13.636719 C 0.988281 -13.375 1.101562 -13.199219 1.246094 -13.113281 C 1.390625 -13.027344 1.507812 -12.996094 1.625 -12.996094 C 2 -12.851562 2.8125 -13.085938 4.0625 -13.636719 C 5.28125 -14.15625 6.703125 -15.347656 8.355469 -17.175781 Z M 8.355469 -17.175781 "/></g></g></g><g fill="rgb(0%, 0%, 0%)" fill-opacity="1"><g transform="translate(230.018861, 283.112963)"><g><path d="M 3.015625 -11.894531 C 1.769531 -11.894531 0.929688 -12.214844 0.492188 -12.851562 C -0.117188 -13.664062 -0.203125 -15.261719 0.261719 -17.667969 C 0.726562 -20.046875 1.625 -23.644531 2.988281 -28.488281 C 3.421875 -30.085938 3.886719 -31.824219 4.410156 -33.742188 C 4.4375 -33.886719 4.527344 -34 4.671875 -34.089844 C 4.785156 -34.175781 4.902344 -34.234375 5.046875 -34.234375 C 5.191406 -34.234375 5.28125 -34.175781 5.367188 -34.089844 C 5.453125 -34 5.453125 -33.886719 5.425781 -33.742188 C 4.933594 -31.824219 4.4375 -30.054688 4.003906 -28.460938 C 2.757812 -24.023438 1.886719 -20.628906 1.390625 -18.25 C 0.898438 -15.839844 0.898438 -14.304688 1.421875 -13.578125 C 1.683594 -13.140625 2.320312 -12.9375 3.277344 -12.9375 C 4.175781 -12.9375 5.078125 -13.113281 5.976562 -13.492188 C 6.875 -13.867188 7.71875 -14.304688 8.5 -14.796875 C 9.285156 -15.289062 9.949219 -15.722656 10.558594 -16.128906 C 10.734375 -16.246094 10.878906 -16.363281 11.023438 -16.480469 C 11.167969 -16.566406 11.316406 -16.59375 11.460938 -16.59375 C 11.574219 -16.566406 11.664062 -16.507812 11.75 -16.390625 C 11.808594 -16.304688 11.808594 -16.1875 11.777344 -16.042969 C 11.722656 -15.898438 11.632812 -15.78125 11.488281 -15.695312 C 11.34375 -15.578125 11.167969 -15.464844 10.996094 -15.347656 C 10.386719 -14.910156 9.632812 -14.417969 8.789062 -13.898438 C 7.921875 -13.34375 6.992188 -12.882812 6.003906 -12.503906 C 5.019531 -12.097656 4.03125 -11.894531 3.015625 -11.894531 Z M 3.015625 -11.894531 "/></g></g></g><g fill="rgb(0%, 0%, 0%)" fill-opacity="1"><g transform="translate(240.839503, 283.112963)"><g><path d="M 6.324219 -12.734375 C 5.890625 -13.289062 5.597656 -13.925781 5.484375 -14.621094 C 5.105469 -14.101562 4.671875 -13.664062 4.207031 -13.289062 C 3.046875 -12.386719 2.03125 -11.921875 1.191406 -11.921875 C 0.636719 -11.921875 0.203125 -12.125 -0.0585938 -12.503906 C -0.550781 -13.257812 -0.433594 -14.765625 0.320312 -17.058594 C 0.378906 -17.203125 0.464844 -17.347656 0.609375 -17.4375 C 0.726562 -17.523438 0.839844 -17.550781 0.988281 -17.550781 C 1.132812 -17.523438 1.246094 -17.464844 1.304688 -17.378906 C 1.363281 -17.289062 1.363281 -17.144531 1.335938 -17 C 0.957031 -15.78125 0.753906 -14.882812 0.726562 -14.332031 C 0.695312 -13.75 0.753906 -13.375 0.898438 -13.199219 C 0.988281 -13.027344 1.191406 -12.9375 1.480469 -12.9375 C 2 -12.9375 2.726562 -13.289062 3.625 -13.984375 C 4.527344 -14.679688 5.191406 -15.695312 5.628906 -17.03125 C 5.6875 -17.203125 5.773438 -17.347656 5.890625 -17.4375 C 6.003906 -17.523438 6.152344 -17.550781 6.296875 -17.550781 C 6.441406 -17.550781 6.527344 -17.492188 6.613281 -17.40625 C 6.671875 -17.320312 6.703125 -17.175781 6.671875 -17.03125 C 6.46875 -16.21875 6.441406 -15.519531 6.585938 -14.910156 C 6.730469 -14.304688 6.933594 -13.839844 7.222656 -13.519531 C 7.601562 -13.085938 8.035156 -12.882812 8.5 -12.9375 C 9.195312 -13.085938 9.777344 -13.546875 10.242188 -14.390625 C 10.675781 -15.230469 11.023438 -16.101562 11.257812 -17.03125 C 11.285156 -17.175781 11.371094 -17.320312 11.519531 -17.40625 C 11.605469 -17.492188 11.75 -17.550781 11.921875 -17.582031 C 12.011719 -17.609375 12.125 -17.582031 12.242188 -17.523438 C 12.328125 -17.4375 12.386719 -17.347656 12.417969 -17.203125 C 12.417969 -17.058594 12.476562 -16.886719 12.589844 -16.652344 C 12.707031 -16.421875 12.96875 -16.21875 13.34375 -16.015625 C 13.722656 -15.8125 14.273438 -15.667969 15 -15.578125 C 15.78125 -15.519531 16.796875 -15.550781 18.101562 -15.667969 C 19.410156 -15.753906 20.683594 -16.015625 21.933594 -16.421875 C 22.078125 -16.449219 22.222656 -16.449219 22.339844 -16.390625 C 22.425781 -16.332031 22.484375 -16.246094 22.511719 -16.101562 C 22.542969 -15.957031 22.484375 -15.839844 22.398438 -15.722656 C 22.308594 -15.578125 22.195312 -15.492188 22.050781 -15.464844 C 21.035156 -15.144531 19.988281 -14.910156 18.886719 -14.765625 C 17.785156 -14.621094 16.769531 -14.535156 15.871094 -14.535156 C 15.433594 -14.535156 15.027344 -14.535156 14.652344 -14.5625 C 13.695312 -14.652344 12.996094 -14.855469 12.53125 -15.144531 C 12.242188 -15.316406 12.039062 -15.492188 11.867188 -15.695312 C 11.023438 -13.375 9.835938 -12.125 8.355469 -11.921875 C 8.269531 -11.894531 8.179688 -11.894531 8.09375 -11.894531 C 7.425781 -11.894531 6.847656 -12.183594 6.324219 -12.734375 Z M 6.324219 -12.734375 "/></g></g></g><g fill="rgb(0%, 0%, 0%)" fill-opacity="1"><g transform="translate(262.27773, 283.112963)"><g><path d="M 1.390625 -15.78125 C 2.988281 -15.578125 4.089844 -15.695312 4.640625 -16.101562 C 4.730469 -16.160156 4.785156 -16.21875 4.816406 -16.246094 C 4.84375 -16.277344 4.84375 -16.277344 4.84375 -16.304688 C 4.84375 -16.332031 4.785156 -16.390625 4.671875 -16.449219 C 4.554688 -16.507812 4.351562 -16.535156 4.0625 -16.535156 C 3.453125 -16.535156 2.929688 -16.480469 2.496094 -16.332031 C 2.058594 -16.1875 1.683594 -15.984375 1.390625 -15.78125 Z M 3.25 -11.894531 L 2.902344 -11.894531 C 0.203125 -11.980469 -0.957031 -12.882812 -0.523438 -14.652344 C -0.433594 -15.058594 -0.175781 -15.492188 0.203125 -15.925781 C 0.582031 -16.363281 1.132812 -16.769531 1.828125 -17.085938 C 2.496094 -17.40625 3.335938 -17.550781 4.324219 -17.550781 C 5.222656 -17.550781 5.746094 -17.289062 5.890625 -16.738281 C 5.976562 -16.363281 5.832031 -15.984375 5.453125 -15.609375 C 5.078125 -15.230469 4.496094 -14.96875 3.683594 -14.796875 C 2.84375 -14.59375 1.796875 -14.621094 0.550781 -14.824219 L 0.492188 -14.652344 C 0.347656 -13.984375 0.582031 -13.519531 1.191406 -13.289062 C 1.769531 -13.027344 2.4375 -12.910156 3.191406 -12.910156 C 6.613281 -12.792969 10.503906 -13.898438 14.824219 -16.1875 C 14.96875 -16.277344 15.085938 -16.277344 15.230469 -16.246094 C 15.347656 -16.21875 15.433594 -16.128906 15.464844 -16.015625 C 15.492188 -15.871094 15.492188 -15.753906 15.433594 -15.636719 C 15.347656 -15.492188 15.261719 -15.40625 15.113281 -15.316406 C 10.910156 -13.027344 6.933594 -11.894531 3.25 -11.894531 Z M 3.25 -11.894531 "/></g></g></g><g fill="rgb(0%, 0%, 0%)" fill-opacity="1"><g transform="translate(276.869645, 283.112963)"><g><path d="M 6.585938 -9.082031 C 3.597656 -6.644531 1.277344 -4.175781 -0.320312 -1.710938 C -1.914062 0.785156 -2.8125 2.84375 -3.015625 4.46875 C -3.046875 4.785156 -3.046875 5.105469 -3.015625 5.484375 C -2.988281 5.859375 -2.902344 6.207031 -2.699219 6.46875 C -2.523438 6.757812 -2.203125 6.90625 -1.742188 6.90625 C -1.042969 6.90625 -0.40625 6.671875 0.203125 6.179688 C 1.507812 5.046875 2.699219 3.132812 3.714844 0.378906 C 4.730469 -2.378906 5.6875 -5.511719 6.585938 -9.082031 Z M 9.253906 -17.492188 C 9.601562 -17.4375 9.746094 -17.289062 9.691406 -17.058594 C 9.3125 -15.550781 8.90625 -14.042969 8.53125 -12.5625 L 8.238281 -11.460938 C 11.371094 -13.605469 15.144531 -15.289062 19.523438 -16.507812 C 19.667969 -16.535156 19.816406 -16.535156 19.929688 -16.480469 C 20.019531 -16.390625 20.074219 -16.304688 20.074219 -16.160156 C 20.074219 -16.015625 20.019531 -15.898438 19.929688 -15.78125 C 19.84375 -15.636719 19.699219 -15.550781 19.554688 -15.519531 C 14.941406 -14.214844 11.054688 -12.386719 7.863281 -10.039062 C 6.847656 -6.0625 5.800781 -2.554688 4.699219 0.433594 C 3.597656 3.453125 2.292969 5.597656 0.753906 6.90625 C -0.144531 7.601562 -1.074219 7.949219 -2.03125 7.949219 C -3.570312 7.949219 -4.265625 6.847656 -4.0625 4.613281 C -3.859375 2.726562 -2.8125 0.378906 -0.988281 -2.4375 C 0.839844 -5.222656 3.480469 -7.921875 6.992188 -10.558594 C 7.136719 -11.226562 7.3125 -11.867188 7.484375 -12.53125 C 7.746094 -13.519531 8.007812 -14.503906 8.269531 -15.492188 C 7.570312 -14.796875 6.875 -14.214844 6.238281 -13.75 C 5.222656 -13.054688 4.292969 -12.589844 3.480469 -12.328125 C 2.667969 -12.070312 2.03125 -11.953125 1.59375 -11.953125 C 1.421875 -11.953125 1.277344 -11.953125 1.191406 -11.980469 C -0.40625 -12.242188 -0.667969 -13.953125 0.40625 -17.085938 C 0.464844 -17.234375 0.550781 -17.378906 0.695312 -17.464844 C 0.8125 -17.550781 0.957031 -17.582031 1.101562 -17.550781 C 1.246094 -17.550781 1.335938 -17.492188 1.390625 -17.40625 C 1.449219 -17.289062 1.449219 -17.144531 1.421875 -17 C 1.101562 -16.074219 0.929688 -15.347656 0.871094 -14.824219 C 0.785156 -14.273438 0.8125 -13.898438 0.898438 -13.636719 C 0.988281 -13.375 1.132812 -13.199219 1.277344 -13.113281 C 1.421875 -13.027344 1.539062 -12.996094 1.625 -12.996094 C 2 -12.851562 2.84375 -13.054688 4.148438 -13.578125 C 5.453125 -14.101562 6.960938 -15.347656 8.675781 -17.289062 C 8.820312 -17.464844 9.023438 -17.523438 9.253906 -17.492188 Z M 9.253906 -17.492188 "/></g></g></g></svg>