<svg id="Layer_1" data-name="Layer 1" xmlns="http://www.w3.org/2000/svg" xmlns:xlink="http://www.w3.org/1999/xlink" viewBox="0 0 299.31 196.91"><defs><style>.cls-1{fill:none;}.cls-2{clip-path:url(#clip-path);}.cls-3{fill:#5e17eb;}.cls-4{clip-path:url(#clip-path-2);}</style><clipPath id="clip-path" transform="translate(-252.53 -27.2)"><rect class="cls-1" x="249.33" y="24.29" width="134.17" height="200.22"/></clipPath><clipPath id="clip-path-2" transform="translate(-252.53 -27.2)"><rect class="cls-1" x="421.83" y="24.29" width="134.17" height="200.22"/></clipPath></defs><g class="cls-2"><path class="cls-3" d="M354.84,212c40.9-30.27,30.55-96.21-17.85-112.35,5-15,11.7-30.21,15.2-45.59,3.31-14.49-6.95-29.8-23.27-26.34-8.48,1.8-12.37,8.29-16.47,15-18.48,30.06-41.78,67.51-54,91-4.48,8.59-6.25,18.63-5.9,29,1.78,50.39,61.84,79.22,102.27,49.29" transform="translate(-252.53 -27.2)"/></g><g class="cls-4"><path class="cls-3" d="M526.45,212C567.34,181.7,557,115.76,508.59,99.62c5-15,11.7-30.21,15.22-45.59,3.29-14.49-7-29.8-23.29-26.34-8.46,1.8-12.37,8.29-16.47,15-18.46,30.06-41.76,67.51-54,91-4.47,8.59-6.25,18.63-5.88,29C426,213.07,486,241.9,526.45,212" transform="translate(-252.53 -27.2)"/></g></svg>